<svg t="1706867373272" class="icon" viewBox="0 0 1024 1024" version="1.1" xmlns="http://www.w3.org/2000/svg" p-id="35026" width="64" height="64"><path d="M959.044616 489.76458 553.837874 151.996786c-22.614044-18.851347-55.469336-18.851347-78.083379 0L70.547753 489.76458c-10.951423 9.127891-4.496407 26.952862 9.760295 26.952862l100.879572 0 0 292.149826c0 33.67496 27.299763 60.974723 60.975746 60.974723l177.316451 0L419.479817 645.527133c0-22.382776 18.145266-40.528042 40.529065-40.528042l109.576651 0c22.382776 0 40.528042 18.145266 40.528042 40.528042l0 224.314859 177.316451 0c33.675984 0 60.975746-27.299763 60.975746-60.974723L848.405773 516.717442l100.879572 0C963.541023 516.717442 969.996039 498.893494 959.044616 489.76458z" p-id="35027"></path></svg>